<svg
              width="18"
              height="20"
              viewBox="0 0 18 20"
              fill="none"
              xmlns="http://www.w3.org/2000/svg"
            >
              <path
                d="M15.0547 10.268V8.39844C15.0547 5.67102 13.2418 3.35934 10.7578 2.6043V1.75781C10.7578 0.788555 9.96926 0 9 0C8.03074 0 7.24219 0.788555 7.24219 1.75781V2.6043C4.7582 3.35934 2.94531 5.67098 2.94531 8.39844V10.268C2.94531 12.6638 2.03211 14.9355 0.373945 16.6648C0.211445 16.8342 0.165781 17.0843 0.25789 17.3002C0.35 17.5161 0.562109 17.6562 0.796875 17.6562H6.12926C6.40145 18.9919 7.5852 20 9 20C10.4148 20 11.5985 18.9919 11.8707 17.6562H17.2031C17.4379 17.6562 17.65 17.5161 17.7421 17.3002C17.8342 17.0843 17.7885 16.8342 17.6261 16.6648C15.9679 14.9355 15.0547 12.6638 15.0547 10.268ZM8.41406 1.75781C8.41406 1.43473 8.67691 1.17188 9 1.17188C9.32309 1.17188 9.58594 1.43473 9.58594 1.75781V2.37219C9.39309 2.35359 9.19766 2.34375 9 2.34375C8.80234 2.34375 8.60691 2.35359 8.41406 2.37219V1.75781ZM9 18.8281C8.23613 18.8281 7.58484 18.3382 7.34297 17.6562H10.657C10.4152 18.3382 9.76387 18.8281 9 18.8281ZM2.05977 16.4844C3.39418 14.6956 4.11719 12.5309 4.11719 10.268V8.39844C4.11719 5.70605 6.30762 3.51562 9 3.51562C11.6924 3.51562 13.8828 5.70605 13.8828 8.39844V10.268C13.8828 12.5309 14.6058 14.6956 15.9403 16.4844H2.05977Z"
                fill="black"
              />
              <path
                d="M16.6172 8.39844C16.6172 8.72203 16.8795 8.98437 17.2031 8.98437C17.5267 8.98437 17.7891 8.72203 17.7891 8.39844C17.7891 6.05078 16.8748 3.84363 15.2148 2.18359C14.986 1.9548 14.615 1.95476 14.3862 2.18359C14.1573 2.41242 14.1573 2.7834 14.3862 3.01222C15.8249 4.45094 16.6172 6.36379 16.6172 8.39844Z"
                fill="black"
              />
              <path
                d="M0.796875 8.98437C1.12047 8.98437 1.38281 8.72203 1.38281 8.39843C1.38281 6.36382 2.17516 4.45097 3.61383 3.01226C3.84266 2.78343 3.84266 2.41246 3.61383 2.18363C3.38504 1.9548 3.01402 1.9548 2.7852 2.18363C1.12516 3.84367 0.210938 6.05078 0.210938 8.39843C0.210938 8.72203 0.473281 8.98437 0.796875 8.98437Z"
                fill="black"
              />
</svg>